<mxfile host="Electron" agent="Mozilla/5.0 (Windows NT 10.0; Win64; x64) AppleWebKit/537.36 (KHTML, like Gecko) draw.io/27.0.5 Chrome/134.0.6998.205 Electron/35.3.0 Safari/537.36" version="27.0.5">
  <diagram name="Page-1" id="VUBXv1drQJIQMRKOUgpT">
    <mxGraphModel dx="1426" dy="841" grid="1" gridSize="10" guides="1" tooltips="1" connect="1" arrows="1" fold="1" page="1" pageScale="1" pageWidth="850" pageHeight="1100" math="0" shadow="0">
      <root>
        <mxCell id="0" />
        <mxCell id="1" parent="0" />
        <mxCell id="box_gLs1pcH0PeI-csPH-36" style="edgeStyle=orthogonalEdgeStyle;rounded=0;orthogonalLoop=1;jettySize=auto;html=1;endArrow=ERzeroToMany;endFill=0;startArrow=ERmandOne;startFill=0;" edge="1" parent="1" source="box_gLs1pcH0PeI-csPH-1" target="box_gLs1pcH0PeI-csPH-22">
          <mxGeometry relative="1" as="geometry" />
        </mxCell>
        <mxCell id="box_gLs1pcH0PeI-csPH-1" value="Usuario" style="shape=table;startSize=25;container=1;collapsible=0;childLayout=tableLayout;fixedRows=1;rowLines=1;fontStyle=1;align=center;resizeLast=1;" vertex="1" parent="1">
          <mxGeometry x="20" y="20" width="248" height="257" as="geometry" />
        </mxCell>
        <mxCell id="box_gLs1pcH0PeI-csPH-2" style="shape=tableRow;horizontal=0;startSize=0;swimlaneHead=0;swimlaneBody=0;fillColor=none;collapsible=0;dropTarget=0;points=[[0,0.5],[1,0.5]];portConstraint=eastwest;top=0;left=0;right=0;bottom=0;" vertex="1" parent="box_gLs1pcH0PeI-csPH-1">
          <mxGeometry y="25" width="248" height="46" as="geometry" />
        </mxCell>
        <mxCell id="box_gLs1pcH0PeI-csPH-3" value="int" style="shape=partialRectangle;connectable=0;fillColor=none;top=0;left=0;bottom=0;right=0;align=left;spacingLeft=2;overflow=hidden;fontSize=11;" vertex="1" parent="box_gLs1pcH0PeI-csPH-2">
          <mxGeometry width="36" height="46" as="geometry">
            <mxRectangle width="36" height="46" as="alternateBounds" />
          </mxGeometry>
        </mxCell>
        <mxCell id="box_gLs1pcH0PeI-csPH-4" value="DNI" style="shape=partialRectangle;connectable=0;fillColor=none;top=0;left=0;bottom=0;right=0;align=left;spacingLeft=2;overflow=hidden;fontSize=11;" vertex="1" parent="box_gLs1pcH0PeI-csPH-2">
          <mxGeometry x="36" width="190" height="46" as="geometry">
            <mxRectangle width="190" height="46" as="alternateBounds" />
          </mxGeometry>
        </mxCell>
        <mxCell id="box_gLs1pcH0PeI-csPH-5" value="PK" style="shape=partialRectangle;connectable=0;fillColor=none;top=0;left=0;bottom=0;right=0;align=left;spacingLeft=2;overflow=hidden;fontSize=11;" vertex="1" parent="box_gLs1pcH0PeI-csPH-2">
          <mxGeometry x="226" width="22" height="46" as="geometry">
            <mxRectangle width="22" height="46" as="alternateBounds" />
          </mxGeometry>
        </mxCell>
        <mxCell id="box_gLs1pcH0PeI-csPH-6" style="shape=tableRow;horizontal=0;startSize=0;swimlaneHead=0;swimlaneBody=0;fillColor=none;collapsible=0;dropTarget=0;points=[[0,0.5],[1,0.5]];portConstraint=eastwest;top=0;left=0;right=0;bottom=0;" vertex="1" parent="box_gLs1pcH0PeI-csPH-1">
          <mxGeometry y="71" width="248" height="46" as="geometry" />
        </mxCell>
        <mxCell id="box_gLs1pcH0PeI-csPH-7" value="string" style="shape=partialRectangle;connectable=0;fillColor=none;top=0;left=0;bottom=0;right=0;align=left;spacingLeft=2;overflow=hidden;fontSize=11;" vertex="1" parent="box_gLs1pcH0PeI-csPH-6">
          <mxGeometry width="36" height="46" as="geometry">
            <mxRectangle width="36" height="46" as="alternateBounds" />
          </mxGeometry>
        </mxCell>
        <mxCell id="box_gLs1pcH0PeI-csPH-8" value="Nombre" style="shape=partialRectangle;connectable=0;fillColor=none;top=0;left=0;bottom=0;right=0;align=left;spacingLeft=2;overflow=hidden;fontSize=11;" vertex="1" parent="box_gLs1pcH0PeI-csPH-6">
          <mxGeometry x="36" width="190" height="46" as="geometry">
            <mxRectangle width="190" height="46" as="alternateBounds" />
          </mxGeometry>
        </mxCell>
        <mxCell id="box_gLs1pcH0PeI-csPH-9" value="" style="shape=partialRectangle;connectable=0;fillColor=none;top=0;left=0;bottom=0;right=0;align=left;spacingLeft=2;overflow=hidden;fontSize=11;" vertex="1" parent="box_gLs1pcH0PeI-csPH-6">
          <mxGeometry x="226" width="22" height="46" as="geometry">
            <mxRectangle width="22" height="46" as="alternateBounds" />
          </mxGeometry>
        </mxCell>
        <mxCell id="box_gLs1pcH0PeI-csPH-10" style="shape=tableRow;horizontal=0;startSize=0;swimlaneHead=0;swimlaneBody=0;fillColor=none;collapsible=0;dropTarget=0;points=[[0,0.5],[1,0.5]];portConstraint=eastwest;top=0;left=0;right=0;bottom=0;" vertex="1" parent="box_gLs1pcH0PeI-csPH-1">
          <mxGeometry y="117" width="248" height="46" as="geometry" />
        </mxCell>
        <mxCell id="box_gLs1pcH0PeI-csPH-11" value="string" style="shape=partialRectangle;connectable=0;fillColor=none;top=0;left=0;bottom=0;right=0;align=left;spacingLeft=2;overflow=hidden;fontSize=11;" vertex="1" parent="box_gLs1pcH0PeI-csPH-10">
          <mxGeometry width="36" height="46" as="geometry">
            <mxRectangle width="36" height="46" as="alternateBounds" />
          </mxGeometry>
        </mxCell>
        <mxCell id="box_gLs1pcH0PeI-csPH-12" value="Apellido" style="shape=partialRectangle;connectable=0;fillColor=none;top=0;left=0;bottom=0;right=0;align=left;spacingLeft=2;overflow=hidden;fontSize=11;" vertex="1" parent="box_gLs1pcH0PeI-csPH-10">
          <mxGeometry x="36" width="190" height="46" as="geometry">
            <mxRectangle width="190" height="46" as="alternateBounds" />
          </mxGeometry>
        </mxCell>
        <mxCell id="box_gLs1pcH0PeI-csPH-13" value="" style="shape=partialRectangle;connectable=0;fillColor=none;top=0;left=0;bottom=0;right=0;align=left;spacingLeft=2;overflow=hidden;fontSize=11;" vertex="1" parent="box_gLs1pcH0PeI-csPH-10">
          <mxGeometry x="226" width="22" height="46" as="geometry">
            <mxRectangle width="22" height="46" as="alternateBounds" />
          </mxGeometry>
        </mxCell>
        <mxCell id="box_gLs1pcH0PeI-csPH-14" style="shape=tableRow;horizontal=0;startSize=0;swimlaneHead=0;swimlaneBody=0;fillColor=none;collapsible=0;dropTarget=0;points=[[0,0.5],[1,0.5]];portConstraint=eastwest;top=0;left=0;right=0;bottom=0;" vertex="1" parent="box_gLs1pcH0PeI-csPH-1">
          <mxGeometry y="163" width="248" height="46" as="geometry" />
        </mxCell>
        <mxCell id="box_gLs1pcH0PeI-csPH-15" value="string" style="shape=partialRectangle;connectable=0;fillColor=none;top=0;left=0;bottom=0;right=0;align=left;spacingLeft=2;overflow=hidden;fontSize=11;" vertex="1" parent="box_gLs1pcH0PeI-csPH-14">
          <mxGeometry width="36" height="46" as="geometry">
            <mxRectangle width="36" height="46" as="alternateBounds" />
          </mxGeometry>
        </mxCell>
        <mxCell id="box_gLs1pcH0PeI-csPH-16" value="eMail" style="shape=partialRectangle;connectable=0;fillColor=none;top=0;left=0;bottom=0;right=0;align=left;spacingLeft=2;overflow=hidden;fontSize=11;" vertex="1" parent="box_gLs1pcH0PeI-csPH-14">
          <mxGeometry x="36" width="190" height="46" as="geometry">
            <mxRectangle width="190" height="46" as="alternateBounds" />
          </mxGeometry>
        </mxCell>
        <mxCell id="box_gLs1pcH0PeI-csPH-17" value="" style="shape=partialRectangle;connectable=0;fillColor=none;top=0;left=0;bottom=0;right=0;align=left;spacingLeft=2;overflow=hidden;fontSize=11;" vertex="1" parent="box_gLs1pcH0PeI-csPH-14">
          <mxGeometry x="226" width="22" height="46" as="geometry">
            <mxRectangle width="22" height="46" as="alternateBounds" />
          </mxGeometry>
        </mxCell>
        <mxCell id="box_gLs1pcH0PeI-csPH-18" style="shape=tableRow;horizontal=0;startSize=0;swimlaneHead=0;swimlaneBody=0;fillColor=none;collapsible=0;dropTarget=0;points=[[0,0.5],[1,0.5]];portConstraint=eastwest;top=0;left=0;right=0;bottom=0;" vertex="1" parent="box_gLs1pcH0PeI-csPH-1">
          <mxGeometry y="209" width="248" height="46" as="geometry" />
        </mxCell>
        <mxCell id="box_gLs1pcH0PeI-csPH-19" value="string" style="shape=partialRectangle;connectable=0;fillColor=none;top=0;left=0;bottom=0;right=0;align=left;spacingLeft=2;overflow=hidden;fontSize=11;" vertex="1" parent="box_gLs1pcH0PeI-csPH-18">
          <mxGeometry width="36" height="46" as="geometry">
            <mxRectangle width="36" height="46" as="alternateBounds" />
          </mxGeometry>
        </mxCell>
        <mxCell id="box_gLs1pcH0PeI-csPH-20" value="IdiomaPreferido" style="shape=partialRectangle;connectable=0;fillColor=none;top=0;left=0;bottom=0;right=0;align=left;spacingLeft=2;overflow=hidden;fontSize=11;" vertex="1" parent="box_gLs1pcH0PeI-csPH-18">
          <mxGeometry x="36" width="190" height="46" as="geometry">
            <mxRectangle width="190" height="46" as="alternateBounds" />
          </mxGeometry>
        </mxCell>
        <mxCell id="box_gLs1pcH0PeI-csPH-21" value="FK" style="shape=partialRectangle;connectable=0;fillColor=none;top=0;left=0;bottom=0;right=0;align=left;spacingLeft=2;overflow=hidden;fontSize=11;" vertex="1" parent="box_gLs1pcH0PeI-csPH-18">
          <mxGeometry x="226" width="22" height="46" as="geometry">
            <mxRectangle width="22" height="46" as="alternateBounds" />
          </mxGeometry>
        </mxCell>
        <mxCell id="box_gLs1pcH0PeI-csPH-22" value="Idioma" style="shape=table;startSize=25;container=1;collapsible=0;childLayout=tableLayout;fixedRows=1;rowLines=1;fontStyle=1;align=center;resizeLast=1;" vertex="1" parent="1">
          <mxGeometry x="310" y="62.5" width="238" height="172" as="geometry" />
        </mxCell>
        <mxCell id="box_gLs1pcH0PeI-csPH-23" style="shape=tableRow;horizontal=0;startSize=0;swimlaneHead=0;swimlaneBody=0;fillColor=none;collapsible=0;dropTarget=0;points=[[0,0.5],[1,0.5]];portConstraint=eastwest;top=0;left=0;right=0;bottom=0;" vertex="1" parent="box_gLs1pcH0PeI-csPH-22">
          <mxGeometry y="25" width="238" height="49" as="geometry" />
        </mxCell>
        <mxCell id="box_gLs1pcH0PeI-csPH-24" value="int" style="shape=partialRectangle;connectable=0;fillColor=none;top=0;left=0;bottom=0;right=0;align=left;spacingLeft=2;overflow=hidden;fontSize=11;" vertex="1" parent="box_gLs1pcH0PeI-csPH-23">
          <mxGeometry width="36" height="49" as="geometry">
            <mxRectangle width="36" height="49" as="alternateBounds" />
          </mxGeometry>
        </mxCell>
        <mxCell id="box_gLs1pcH0PeI-csPH-25" value="CodigoIdioma" style="shape=partialRectangle;connectable=0;fillColor=none;top=0;left=0;bottom=0;right=0;align=left;spacingLeft=2;overflow=hidden;fontSize=11;" vertex="1" parent="box_gLs1pcH0PeI-csPH-23">
          <mxGeometry x="36" width="180" height="49" as="geometry">
            <mxRectangle width="180" height="49" as="alternateBounds" />
          </mxGeometry>
        </mxCell>
        <mxCell id="box_gLs1pcH0PeI-csPH-26" value="PK" style="shape=partialRectangle;connectable=0;fillColor=none;top=0;left=0;bottom=0;right=0;align=left;spacingLeft=2;overflow=hidden;fontSize=11;" vertex="1" parent="box_gLs1pcH0PeI-csPH-23">
          <mxGeometry x="216" width="22" height="49" as="geometry">
            <mxRectangle width="22" height="49" as="alternateBounds" />
          </mxGeometry>
        </mxCell>
        <mxCell id="box_gLs1pcH0PeI-csPH-27" style="shape=tableRow;horizontal=0;startSize=0;swimlaneHead=0;swimlaneBody=0;fillColor=none;collapsible=0;dropTarget=0;points=[[0,0.5],[1,0.5]];portConstraint=eastwest;top=0;left=0;right=0;bottom=0;" vertex="1" parent="box_gLs1pcH0PeI-csPH-22">
          <mxGeometry y="74" width="238" height="49" as="geometry" />
        </mxCell>
        <mxCell id="box_gLs1pcH0PeI-csPH-28" value="string" style="shape=partialRectangle;connectable=0;fillColor=none;top=0;left=0;bottom=0;right=0;align=left;spacingLeft=2;overflow=hidden;fontSize=11;" vertex="1" parent="box_gLs1pcH0PeI-csPH-27">
          <mxGeometry width="36" height="49" as="geometry">
            <mxRectangle width="36" height="49" as="alternateBounds" />
          </mxGeometry>
        </mxCell>
        <mxCell id="box_gLs1pcH0PeI-csPH-29" value="NombreIdioma" style="shape=partialRectangle;connectable=0;fillColor=none;top=0;left=0;bottom=0;right=0;align=left;spacingLeft=2;overflow=hidden;fontSize=11;" vertex="1" parent="box_gLs1pcH0PeI-csPH-27">
          <mxGeometry x="36" width="180" height="49" as="geometry">
            <mxRectangle width="180" height="49" as="alternateBounds" />
          </mxGeometry>
        </mxCell>
        <mxCell id="box_gLs1pcH0PeI-csPH-30" value="" style="shape=partialRectangle;connectable=0;fillColor=none;top=0;left=0;bottom=0;right=0;align=left;spacingLeft=2;overflow=hidden;fontSize=11;" vertex="1" parent="box_gLs1pcH0PeI-csPH-27">
          <mxGeometry x="216" width="22" height="49" as="geometry">
            <mxRectangle width="22" height="49" as="alternateBounds" />
          </mxGeometry>
        </mxCell>
        <mxCell id="box_gLs1pcH0PeI-csPH-31" style="shape=tableRow;horizontal=0;startSize=0;swimlaneHead=0;swimlaneBody=0;fillColor=none;collapsible=0;dropTarget=0;points=[[0,0.5],[1,0.5]];portConstraint=eastwest;top=0;left=0;right=0;bottom=0;" vertex="1" parent="box_gLs1pcH0PeI-csPH-22">
          <mxGeometry y="123" width="238" height="49" as="geometry" />
        </mxCell>
        <mxCell id="box_gLs1pcH0PeI-csPH-32" value="string" style="shape=partialRectangle;connectable=0;fillColor=none;top=0;left=0;bottom=0;right=0;align=left;spacingLeft=2;overflow=hidden;fontSize=11;" vertex="1" parent="box_gLs1pcH0PeI-csPH-31">
          <mxGeometry width="36" height="49" as="geometry">
            <mxRectangle width="36" height="49" as="alternateBounds" />
          </mxGeometry>
        </mxCell>
        <mxCell id="box_gLs1pcH0PeI-csPH-33" value="ArchivoJSON" style="shape=partialRectangle;connectable=0;fillColor=none;top=0;left=0;bottom=0;right=0;align=left;spacingLeft=2;overflow=hidden;fontSize=11;" vertex="1" parent="box_gLs1pcH0PeI-csPH-31">
          <mxGeometry x="36" width="180" height="49" as="geometry">
            <mxRectangle width="180" height="49" as="alternateBounds" />
          </mxGeometry>
        </mxCell>
        <mxCell id="box_gLs1pcH0PeI-csPH-34" value="" style="shape=partialRectangle;connectable=0;fillColor=none;top=0;left=0;bottom=0;right=0;align=left;spacingLeft=2;overflow=hidden;fontSize=11;" vertex="1" parent="box_gLs1pcH0PeI-csPH-31">
          <mxGeometry x="216" width="22" height="49" as="geometry">
            <mxRectangle width="22" height="49" as="alternateBounds" />
          </mxGeometry>
        </mxCell>
      </root>
    </mxGraphModel>
  </diagram>
</mxfile>
